<svg xmlns="http://www.w3.org/2000/svg" xmlns:xlink="http://www.w3.org/1999/xlink" version="1.1" width="1080" height="1080" viewBox="0 0 1080 1080" xml:space="preserve">
<desc fill="#528ce3">Created with Fabric.js 5.2.4</desc>
<defs fill="#528ce3">
</defs>
<g transform="matrix(1 0 0 1 540 540)" id="0eac6cc3-b103-4f60-949f-cccd9a55e08a">
<rect style="stroke: none; stroke-width: 1; stroke-dasharray: none; stroke-linecap: butt; stroke-dashoffset: 0; stroke-linejoin: miter; stroke-miterlimit: 4; fill: rgb(255,255,255); fill-rule: nonzero; opacity: 1; visibility: hidden;" vector-effect="non-scaling-stroke" x="-540" y="-540" rx="0" ry="0" width="1080" height="1080"/>
</g>
<g transform="matrix(1 0 0 1 540 540)" id="1148ba39-7ee8-42c7-91ab-379cb486df01">
</g>
<g transform="matrix(1.61 0 0 1.61 540 540)">
<g style="" vector-effect="non-scaling-stroke">
		<g transform="matrix(1 0 0 1 0 0)">
<path style="stroke: none; stroke-width: 1; stroke-dasharray: none; stroke-linecap: butt; stroke-dashoffset: 0; stroke-linejoin: miter; stroke-miterlimit: 4; fill:#dbeafd; fill-rule: nonzero; opacity: 1;" vector-effect="non-scaling-stroke" transform=" translate(-15.03, -296.63)" d="M 0 0 C 1.55850677 -0.01448685 1.55850677 -0.01448685 3.14849854 -0.02926636 C 6.50137928 -0.05402688 9.854069 -0.0666539 13.20703125 -0.07421875 C 14.91803513 -0.07864487 14.91803513 -0.07864487 16.66360474 -0.0831604 C 38.07886259 -0.09577411 58.6128903 1.13566691 79.42114258 6.57348633 C 81.69653786 7.15564374 83.96593776 7.65884081 86.26953125 8.11328125 C 92.66981318 9.50717205 98.88590554 11.61549945 105.11376953 13.62548828 C 106.74485214 14.14995886 108.37986889 14.66216742 110.015625 15.171875 C 126.07973456 20.29871848 141.22888865 27.00192061 155.98681641 35.12353516 C 157.78433107 36.10929686 159.59442331 37.07204764 161.40625 38.03125 C 165.94878471 40.44195396 170.18244474 42.95129921 174.29296875 46.0390625 C 176.21308974 47.3727212 178.19383049 48.41375771 180.26953125 49.48828125 C 185.14648676 52.11817535 189.20185198 55.5188013 193.421875 59.0859375 C 195.62537576 60.91169528 197.84429447 62.56721096 200.20703125 64.17578125 C 201.13515625 64.85640625 202.06328125 65.53703125 203.01953125 66.23828125 C 203.01953125 66.89828125 203.01953125 67.55828125 203.01953125 68.23828125 C 203.85484375 68.33109375 203.85484375 68.33109375 204.70703125 68.42578125 C 207.33188192 69.34802608 208.58024893 70.71840621 210.48754883 72.68481445 C 213.56480046 75.80522117 216.81361418 78.75121829 220.01953125 81.73828125 C 222.69397506 84.23015233 225.36215036 86.72821785 228.01953125 89.23828125 C 228.55191406 89.73714844 229.08429688 90.23601562 229.6328125 90.75 C 230.80158532 91.87268037 231.91743256 93.0500811 233.01953125 94.23828125 C 233.01953125 94.89828125 233.01953125 95.55828125 233.01953125 96.23828125 C 233.67953125 96.23828125 234.33953125 96.23828125 235.01953125 96.23828125 C 236.20975494 97.87885985 237.39633156 99.52383388 238.5078125 101.21875 C 240.05447291 103.38655374 240.05447291 103.38655374 242.3828125 105.58984375 C 245.14531234 108.36462136 247.5385895 111.31014377 249.89453125 114.42578125 C 250.54252686 115.27571655 250.54252686 115.27571655 251.20361328 116.14282227 C 254.94621733 121.08042104 258.53070603 126.11819451 262.01953125 131.23828125 C 262.67953125 132.18703125 263.33953125 133.13578125 264.01953125 134.11328125 C 266.54214954 138.05487233 268.87723089 142.09325193 271.21875 146.14453125 C 272.84977663 148.94664208 274.51955137 151.71995983 276.20703125 154.48828125 C 280.03901557 160.85793604 283.13568189 167.38913902 286.01953125 174.23828125 C 286.44685547 175.14900391 286.44685547 175.14900391 286.8828125 176.078125 C 292.8633949 188.90069056 297.03519896 202.68330364 301.01953125 216.23828125 C 301.22964844 216.9461377 301.43976562 217.65399414 301.65625 218.38330078 C 305.68184314 232.14046035 307.97926624 246.06563743 310.01953125 260.23828125 C 310.19532715 261.24930908 310.37112305 262.26033691 310.55224609 263.30200195 C 311.20146551 268.77084453 311.24172931 274.19988373 311.29296875 279.703125 C 311.30531555 280.91769379 311.31766235 282.13226257 311.3303833 283.38363647 C 311.36263894 287.3143465 311.38203161 291.24497103 311.39453125 295.17578125 C 311.397127 295.84030178 311.39972275 296.50482231 311.40239716 297.18947983 C 311.48050364 319.79711604 311.36422161 342.59385896 304.01953125 364.23828125 C 303.71926724 365.69084048 303.44745107 367.14962654 303.20703125 368.61328125 C 301.77682022 376.00637211 299.38475644 383.10328609 297.01953125 390.23828125 C 296.74947266 391.05780273 296.47941406 391.87732422 296.20117188 392.72167969 C 293.14975666 401.91432986 290.0429316 410.86509655 285.48828125 419.44140625 C 283.85397994 422.55353322 282.40372016 425.72239866 280.95703125 428.92578125 C 276.40254588 438.84679202 270.79015063 447.98124599 265.01953125 457.23828125 C 264.35953125 458.31980469 263.69953125 459.40132812 263.01953125 460.515625 C 262.40078125 461.51722656 261.78203125 462.51882813 261.14453125 463.55078125 C 260.59023438 464.45441406 260.0359375 465.35804688 259.46484375 466.2890625 C 258.74941406 467.25392578 258.74941406 467.25392578 258.01953125 468.23828125 C 257.35953125 468.23828125 256.69953125 468.23828125 256.01953125 468.23828125 C 255.79265625 468.91890625 255.56578125 469.59953125 255.33203125 470.30078125 C 253.70726979 473.93715215 251.69149868 477.26657388 249.01953125 480.23828125 C 248.35953125 480.23828125 247.69953125 480.23828125 247.01953125 480.23828125 C 246.68953125 481.55828125 246.35953125 482.87828125 246.01953125 484.23828125 C 245.35953125 484.23828125 244.69953125 484.23828125 244.01953125 484.23828125 C 243.60550049 485.12773438 243.60550049 485.12773438 243.18310547 486.03515625 C 242.08054885 488.12274981 240.93805845 489.70661435 239.40234375 491.48828125 C 238.88414062 492.09067627 238.3659375 492.69307129 237.83203125 493.3137207 C 237.27515625 493.94882568 236.71828125 494.58393066 236.14453125 495.23828125 C 235.56445312 495.90110107 234.984375 496.5639209 234.38671875 497.24682617 C 225.86225957 506.89822812 217.11523993 515.5353303 206.734375 523.1796875 C 204.08659515 525.08411091 204.08659515 525.08411091 202.2734375 527.015625 C 201.01953125 528.23828125 201.01953125 528.23828125 199.01953125 528.23828125 C 198.68953125 529.22828125 198.35953125 530.21828125 198.01953125 531.23828125 C 195.65625 533.24609375 195.65625 533.24609375 192.70703125 535.36328125 C 191.25876953 536.41902344 191.25876953 536.41902344 189.78125 537.49609375 C 187.39065535 539.00416336 185.7715848 539.80684293 183.01953125 540.23828125 C 183.01953125 540.89828125 183.01953125 541.55828125 183.01953125 542.23828125 C 177.92204952 546.41695763 171.89716759 549.49511097 166.0859375 552.55078125 C 163.49241617 553.97804394 160.99993062 555.48567165 158.484375 557.04296875 C 152.54241597 560.62684941 146.33277811 563.49961591 140.01953125 566.36328125 C 138.90835937 566.87503906 137.7971875 567.38679687 136.65234375 567.9140625 C 127.88755437 571.92524258 119.16470112 575.73239395 109.890625 578.39453125 C 107.0707769 579.2232213 104.27723213 580.11987581 101.48144531 581.02587891 C 77.3685846 588.76688653 52.34523329 592.87219438 27.01953125 593.23828125 C 26.10107422 593.25342773 25.18261719 593.26857422 24.23632812 593.28417969 C 17.49493419 593.37864215 10.76058443 593.33717485 4.01953125 593.23828125 C 3.13749023 593.23103027 2.25544922 593.2237793 1.34667969 593.21630859 C -21.78706212 592.96156974 -44.83790529 588.85164523 -66.98046875 582.23828125 C -68.18574219 581.88765625 -69.39101563 581.53703125 -70.6328125 581.17578125 C -92.4028223 574.67272115 -113.31778788 565.61827531 -132.98046875 554.23828125 C -133.94597656 553.68269531 -134.91148437 553.12710938 -135.90625 552.5546875 C -138.94023328 550.79777315 -141.96266878 549.02282602 -144.98046875 547.23828125 C -145.81964844 546.74714844 -146.65882813 546.25601563 -147.5234375 545.75 C -149.37828803 544.63708968 -151.18598016 543.44611011 -152.98046875 542.23828125 C -152.98046875 541.57828125 -152.98046875 540.91828125 -152.98046875 540.23828125 C -153.5115625 540.16480469 -154.04265625 540.09132813 -154.58984375 540.015625 C -157.93517879 538.92784449 -160.46952822 536.91111737 -163.23046875 534.80078125 C -164.06191406 534.18879883 -164.06191406 534.18879883 -164.91015625 533.56445312 C -166.30857784 532.50874816 -167.64997527 531.37840538 -168.98046875 530.23828125 C -168.98046875 529.57828125 -168.98046875 528.91828125 -168.98046875 528.23828125 C -169.53734375 528.17640625 -170.09421875 528.11453125 -170.66796875 528.05078125 C -173.93417385 526.90319567 -175.54816286 524.69799341 -177.98046875 522.23828125 C -180.17447137 520.30057286 -182.42427471 518.4305414 -184.66796875 516.55078125 C -193.47467113 509.08038768 -201.52220519 501.05947622 -208.98046875 492.23828125 C -209.48835938 491.65820312 -209.99625 491.078125 -210.51953125 490.48046875 C -213.98046875 486.47815555 -213.98046875 486.47815555 -213.98046875 484.23828125 C -214.97046875 483.90828125 -215.96046875 483.57828125 -216.98046875 483.23828125 C -216.98046875 482.24828125 -216.98046875 481.25828125 -216.98046875 480.23828125 C -217.97046875 479.90828125 -218.96046875 479.57828125 -219.98046875 479.23828125 C -221.5859375 477.2421875 -221.5859375 477.2421875 -223.16796875 474.80078125 C -223.96267578 473.59615234 -223.96267578 473.59615234 -224.7734375 472.3671875 C -225.98046875 470.23828125 -225.98046875 470.23828125 -225.98046875 468.23828125 C -226.64046875 468.23828125 -227.30046875 468.23828125 -227.98046875 468.23828125 C -229.49609375 466.1484375 -229.49609375 466.1484375 -231.23046875 463.30078125 C -233.42576368 459.73740398 -235.65067671 456.23457247 -238.04296875 452.80078125 C -240.99608114 448.41848881 -243.30108118 443.7937 -245.5859375 439.03515625 C -247.34624002 435.50468957 -249.37563552 432.19593387 -251.48046875 428.86328125 C -254.89954866 422.8798914 -257.19711833 416.24309873 -259.73046875 409.84375 C -260.97442608 406.71441984 -262.24434416 403.6022939 -263.58203125 400.51171875 C -272.82361556 378.87918342 -276.49298789 355.32760632 -279.98046875 332.23828125 C -280.15843994 331.2220166 -280.33641113 330.20575195 -280.51977539 329.15869141 C -281.15889295 323.71992629 -281.18343734 318.32377375 -281.21875 312.8515625 C -281.22682175 311.64050339 -281.23489349 310.42944427 -281.24320984 309.1816864 C -281.25702374 306.61047785 -281.2677579 304.03925117 -281.27563477 301.46801758 C -281.28702463 298.89406785 -281.30726293 296.3201392 -281.3371582 293.74633789 C -281.90700384 244.56452078 -268.94661749 199.71257588 -246.89746094 156.05615234 C -245.58471693 153.45373171 -244.28237478 150.8461365 -242.98046875 148.23828125 C -242.32046875 148.23828125 -241.66046875 148.23828125 -240.98046875 148.23828125 C -240.79871094 147.35849609 -240.79871094 147.35849609 -240.61328125 146.4609375 C -239.9653868 144.18530822 -239.14319207 142.65000607 -237.85546875 140.67578125 C -237.17871094 139.62970703 -237.17871094 139.62970703 -236.48828125 138.5625 C -235.74191406 137.41201172 -235.74191406 137.41201172 -234.98046875 136.23828125 C -234.46226562 135.39910156 -233.9440625 134.55992187 -233.41015625 133.6953125 C -220.46631133 112.83465081 -203.63935992 92.56779969 -184.85546875 76.61328125 C -182.50281964 74.59737496 -180.28707232 72.55988565 -178.16796875 70.30078125 C -175.98046875 68.23828125 -175.98046875 68.23828125 -172.98046875 68.23828125 C -172.71709717 67.63234131 -172.45372559 67.02640137 -172.18237305 66.40209961 C -170.90725911 64.10648011 -169.86787331 63.12442767 -167.75 61.6171875 C -167.11126953 61.15634766 -166.47253906 60.69550781 -165.81445312 60.22070312 C -165.14736328 59.75212891 -164.48027344 59.28355469 -163.79296875 58.80078125 C -162.82133789 58.1037207 -162.82133789 58.1037207 -161.83007812 57.39257812 C -160.52730661 56.4594241 -159.22146856 55.5305364 -157.91259766 54.60595703 C -156.63934824 53.70467535 -155.3706476 52.79692776 -154.10693359 51.88232422 C -150.81234262 49.49818645 -147.50873621 47.27038466 -143.98046875 45.23828125 C -142.95953125 44.6453125 -141.93859375 44.05234375 -140.88671875 43.44140625 C -132.98510254 38.91066301 -125.04017233 34.48392834 -116.98046875 30.23828125 C -116.01753906 29.72394531 -115.05460938 29.20960938 -114.0625 28.6796875 C -106.59970667 24.80225777 -98.94717768 21.84614748 -91.05371094 18.99707031 C -88.99168581 18.2423866 -86.94226367 17.46054432 -84.89453125 16.66796875 C -67.52104116 9.95781697 -49.92562868 6.2043026 -31.60546875 3.11328125 C -30.59500488 2.94248047 -29.58454102 2.77167969 -28.54345703 2.59570312 C -27.56618652 2.43392578 -26.58891602 2.27214844 -25.58203125 2.10546875 C -24.28773193 1.89059814 -24.28773193 1.89059814 -22.96728516 1.67138672 C -15.28772553 0.55780663 -7.76092661 0.06026486 0 0 Z" stroke-linecap="round"/>
</g>
		<g transform="matrix(1 0 0 1 -0.13 0.23)">
<path style="stroke: none; stroke-width: 1; stroke-dasharray: none; stroke-linecap: butt; stroke-dashoffset: 0; stroke-linejoin: miter; stroke-miterlimit: 4; fill:#dbeafd; fill-rule: nonzero; opacity: 1;" vector-effect="non-scaling-stroke" transform=" translate(-92.92, -187.78)" d="M 0 0 C 1.61704113 -0.00463439 3.23408119 -0.00965987 4.85112 -0.01504517 C 9.22487619 -0.02810386 13.59861708 -0.03460027 17.9723897 -0.03905582 C 20.70691029 -0.04199468 23.44142677 -0.04610081 26.17594528 -0.05056 C 34.73812738 -0.06421228 43.30029998 -0.07389231 51.8624922 -0.07776189 C 61.7360406 -0.08224943 71.60945104 -0.09983905 81.48295748 -0.12876248 C 89.12561502 -0.15037257 96.76823369 -0.16046566 104.41092145 -0.16180301 C 108.97178236 -0.16285071 113.53251316 -0.16875218 118.09334183 -0.18662262 C 122.37962718 -0.20309361 126.66568441 -0.2052636 130.95199013 -0.19648361 C 132.52333881 -0.19571295 134.09469973 -0.20005981 135.66601753 -0.20994186 C 137.81388146 -0.22265668 139.96093655 -0.21678811 142.10879517 -0.20635986 C 143.91006331 -0.2085597 143.91006331 -0.2085597 145.74772072 -0.21080399 C 151.42300186 0.43024365 155.1967371 2.94210531 159.16534424 6.91172791 C 159.92797577 7.66734512 160.6906073 8.42296234 161.47634888 9.20147705 C 162.70162796 10.43822174 162.70162796 10.43822174 163.95166016 11.69995117 C 164.82714508 12.57178543 165.70263 13.44361969 166.60464478 14.34187317 C 168.99428926 16.7248173 171.37704571 19.1142572 173.75664616 21.50720668 C 176.25197101 24.01388159 178.75503892 26.51280382 181.25701904 29.01283264 C 185.45505535 33.20998735 189.6470838 37.41306895 193.83544922 41.61987305 C 198.6756609 46.48127096 203.52466348 51.33375961 208.37859464 56.18145651 C 213.05312251 60.85028818 217.72195652 65.5247721 222.38802338 70.20205879 C 224.37187688 72.19055276 226.35759697 74.17715464 228.34482574 76.16227531 C 231.11809748 78.93331221 233.88296234 81.71264355 236.64697266 84.49291992 C 237.4719223 85.31539215 238.29687195 86.13786438 239.14682007 86.98526001 C 239.8981723 87.74369705 240.64952454 88.50213409 241.42364502 89.28355408 C 242.07769947 89.9396614 242.73175392 90.59576872 243.4056282 91.27175808 C 246.137524 94.42887938 247.29027538 97.08925857 247.29220963 101.26423836 C 247.29742512 102.07766673 247.30264061 102.89109511 247.30801415 103.72917283 C 247.30355271 104.61729122 247.29909127 105.50540961 247.29449463 106.42044067 C 247.29761461 107.36827042 247.30073459 108.31610016 247.30394912 109.29265201 C 247.31194267 112.4769024 247.3056 115.66096294 247.29931641 118.84521484 C 247.30202577 121.12511812 247.30558639 123.40502053 247.30993652 125.68492126 C 247.31907235 131.88559305 247.31551051 138.08619845 247.30917835 144.28687143 C 247.30412086 150.77514229 247.30880945 157.26340739 247.31195068 163.75167847 C 247.31582606 175.35401933 247.3095999 186.95632989 247.29943201 198.55866598 C 247.29050906 209.06516733 247.29203772 219.57162446 247.30126953 230.078125 C 247.3119903 242.28484252 247.31594619 254.49152853 247.310045 266.69825065 C 247.3069304 273.15732565 247.30650167 279.61637023 247.31311798 286.07544327 C 247.3189092 292.15422396 247.31486196 298.23292146 247.30332947 304.31169319 C 247.30069169 306.53927408 247.30143286 308.76686201 247.3058548 310.99444008 C 247.31134693 314.04302795 247.30443152 317.09135188 247.29449463 320.1399231 C 247.29895607 321.01465716 247.30341752 321.88939121 247.30801415 322.79063237 C 247.21336923 337.83574865 242.00331532 351.07751491 231.50146484 361.97363281 C 220.40540082 371.83680083 209.3305283 375.30645305 194.74435425 375.31503296 C 193.82874635 375.31941521 192.91313845 375.32379747 191.96978486 375.32831252 C 188.91247157 375.34162956 185.85518707 375.34786332 182.79785156 375.35400391 C 180.6011899 375.36191038 178.40452952 375.37017967 176.20787048 375.37878418 C 169.00366444 375.40493811 161.79945278 375.42030383 154.59521484 375.43457031 C 152.11068849 375.43993246 149.62616218 375.44530997 147.14163589 375.45070267 C 136.80446055 375.47232041 126.46728673 375.49105609 116.13009453 375.50232506 C 113.45212678 375.5052543 110.77415906 375.50821604 108.09619141 375.51123047 C 107.09791174 375.51234954 107.09791174 375.51234954 106.07946481 375.51349123 C 95.30567847 375.52613693 84.53205745 375.55935546 73.75834833 375.6010323 C 62.67602951 375.6435488 51.5937995 375.66662405 40.51140034 375.67224562 C 34.29752852 375.6758923 28.08393742 375.68784185 21.87014389 375.72034836 C 16.02103264 375.75051017 10.17237084 375.75671164 4.32319832 375.7449646 C 2.18393462 375.74474456 0.04464954 375.75299174 -2.09454155 375.77061844 C -18.23091933 375.8962778 -30.49686217 374.4668765 -42.95947266 363.16113281 C -43.82572266 362.37738281 -44.69197266 361.59363281 -45.58447266 360.78613281 C -51.99480468 353.701029 -56.29854726 347.43023314 -58.95947266 338.16113281 C -59.30095652 337.02389361 -59.64244038 335.88665442 -59.99427223 334.71495342 C -61.32747134 329.30912623 -61.2427781 323.96954421 -61.22689819 318.4289093 C -61.23142931 317.26335028 -61.23596042 316.09779127 -61.24062884 314.89691228 C -61.25106368 311.67919168 -61.25260475 308.46161243 -61.25024009 305.24388039 C -61.24983055 301.76655946 -61.26088413 298.2892714 -61.27035522 294.81196594 C -61.28693725 288.00541756 -61.29246352 281.19890383 -61.29357998 274.39233694 C -61.29453187 268.85630687 -61.29864923 263.32028818 -61.30498123 257.7842617 C -61.32258676 242.07084161 -61.33182129 226.35744878 -61.33032028 210.64401875 C -61.33020042 209.37450559 -61.33020042 209.37450559 -61.33007812 208.0793457 C -61.32999636 207.23196393 -61.3299146 206.38458215 -61.32983036 205.51152214 C -61.32901787 191.78586369 -61.348148 178.06031509 -61.37635486 164.3346884 C -61.40512319 150.2238997 -61.41889295 136.1131645 -61.41716731 122.00234574 C -61.41650472 114.08722841 -61.42193906 106.17222622 -61.44352341 98.25713539 C -61.46178737 91.51670081 -61.46604004 84.77643354 -61.45250456 78.03598485 C -61.44600076 74.60137466 -61.4457628 71.16708496 -61.46321106 67.7325058 C -61.47871502 63.99747915 -61.46932 60.2632841 -61.45394897 56.52827454 C -61.4642361 55.45878722 -61.47452323 54.3892999 -61.48512208 53.28740388 C -61.35508671 38.9062332 -56.14756291 25.28518528 -46.20947266 14.84863281 C -41.54202008 10.42683563 -36.67394188 7.08121692 -30.95947266 4.16113281 C -30.33169922 3.83371094 -29.70392578 3.50628906 -29.05712891 3.16894531 C -20.12703711 -1.08347935 -9.64544367 0.0064559 0 0 Z" stroke-linecap="round"/>
</g>
		<g transform="matrix(1 0 0 1 -0.13 0.23)">
<path style="stroke: none; stroke-width: 1; stroke-dasharray: none; stroke-linecap: butt; stroke-dashoffset: 0; stroke-linejoin: miter; stroke-miterlimit: 4; fill:#528ce3; fill-rule: nonzero; opacity: 1;" vector-effect="non-scaling-stroke" transform=" translate(-92.92, -187.78)" d="M 0 0 C 1.61704113 -0.00463439 3.23408119 -0.00965987 4.85112 -0.01504517 C 9.22487619 -0.02810386 13.59861708 -0.03460027 17.9723897 -0.03905582 C 20.70691029 -0.04199468 23.44142677 -0.04610081 26.17594528 -0.05056 C 34.73812738 -0.06421228 43.30029998 -0.07389231 51.8624922 -0.07776189 C 61.7360406 -0.08224943 71.60945104 -0.09983905 81.48295748 -0.12876248 C 89.12561502 -0.15037257 96.76823369 -0.16046566 104.41092145 -0.16180301 C 108.97178236 -0.16285071 113.53251316 -0.16875218 118.09334183 -0.18662262 C 122.37962718 -0.20309361 126.66568441 -0.2052636 130.95199013 -0.19648361 C 132.52333881 -0.19571295 134.09469973 -0.20005981 135.66601753 -0.20994186 C 137.81388146 -0.22265668 139.96093655 -0.21678811 142.10879517 -0.20635986 C 143.91006331 -0.2085597 143.91006331 -0.2085597 145.74772072 -0.21080399 C 151.42300186 0.43024365 155.1967371 2.94210531 159.16534424 6.91172791 C 159.92797577 7.66734512 160.6906073 8.42296234 161.47634888 9.20147705 C 162.70162796 10.43822174 162.70162796 10.43822174 163.95166016 11.69995117 C 164.82714508 12.57178543 165.70263 13.44361969 166.60464478 14.34187317 C 168.99428926 16.7248173 171.37704571 19.1142572 173.75664616 21.50720668 C 176.25197101 24.01388159 178.75503892 26.51280382 181.25701904 29.01283264 C 185.45505535 33.20998735 189.6470838 37.41306895 193.83544922 41.61987305 C 198.6756609 46.48127096 203.52466348 51.33375961 208.37859464 56.18145651 C 213.05312251 60.85028818 217.72195652 65.5247721 222.38802338 70.20205879 C 224.37187688 72.19055276 226.35759697 74.17715464 228.34482574 76.16227531 C 231.11809748 78.93331221 233.88296234 81.71264355 236.64697266 84.49291992 C 237.4719223 85.31539215 238.29687195 86.13786438 239.14682007 86.98526001 C 239.8981723 87.74369705 240.64952454 88.50213409 241.42364502 89.28355408 C 242.07769947 89.9396614 242.73175392 90.59576872 243.4056282 91.27175808 C 246.137524 94.42887938 247.29027538 97.08925857 247.29220963 101.26423836 C 247.29742512 102.07766673 247.30264061 102.89109511 247.30801415 103.72917283 C 247.30355271 104.61729122 247.29909127 105.50540961 247.29449463 106.42044067 C 247.29761461 107.36827042 247.30073459 108.31610016 247.30394912 109.29265201 C 247.31194267 112.4769024 247.3056 115.66096294 247.29931641 118.84521484 C 247.30202577 121.12511812 247.30558639 123.40502053 247.30993652 125.68492126 C 247.31907235 131.88559305 247.31551051 138.08619845 247.30917835 144.28687143 C 247.30412086 150.77514229 247.30880945 157.26340739 247.31195068 163.75167847 C 247.31582606 175.35401933 247.3095999 186.95632989 247.29943201 198.55866598 C 247.29050906 209.06516733 247.29203772 219.57162446 247.30126953 230.078125 C 247.3119903 242.28484252 247.31594619 254.49152853 247.310045 266.69825065 C 247.3069304 273.15732565 247.30650167 279.61637023 247.31311798 286.07544327 C 247.3189092 292.15422396 247.31486196 298.23292146 247.30332947 304.31169319 C 247.30069169 306.53927408 247.30143286 308.76686201 247.3058548 310.99444008 C 247.31134693 314.04302795 247.30443152 317.09135188 247.29449463 320.1399231 C 247.29895607 321.01465716 247.30341752 321.88939121 247.30801415 322.79063237 C 247.21336923 337.83574865 242.00331532 351.07751491 231.50146484 361.97363281 C 220.40540082 371.83680083 209.3305283 375.30645305 194.74435425 375.31503296 C 193.82874635 375.31941521 192.91313845 375.32379747 191.96978486 375.32831252 C 188.91247157 375.34162956 185.85518707 375.34786332 182.79785156 375.35400391 C 180.6011899 375.36191038 178.40452952 375.37017967 176.20787048 375.37878418 C 169.00366444 375.40493811 161.79945278 375.42030383 154.59521484 375.43457031 C 152.11068849 375.43993246 149.62616218 375.44530997 147.14163589 375.45070267 C 136.80446055 375.47232041 126.46728673 375.49105609 116.13009453 375.50232506 C 113.45212678 375.5052543 110.77415906 375.50821604 108.09619141 375.51123047 C 107.09791174 375.51234954 107.09791174 375.51234954 106.07946481 375.51349123 C 95.30567847 375.52613693 84.53205745 375.55935546 73.75834833 375.6010323 C 62.67602951 375.6435488 51.5937995 375.66662405 40.51140034 375.67224562 C 34.29752852 375.6758923 28.08393742 375.68784185 21.87014389 375.72034836 C 16.02103264 375.75051017 10.17237084 375.75671164 4.32319832 375.7449646 C 2.18393462 375.74474456 0.04464954 375.75299174 -2.09454155 375.77061844 C -18.23091933 375.8962778 -30.49686217 374.4668765 -42.95947266 363.16113281 C -43.82572266 362.37738281 -44.69197266 361.59363281 -45.58447266 360.78613281 C -51.99480468 353.701029 -56.29854726 347.43023314 -58.95947266 338.16113281 C -59.30095652 337.02389361 -59.64244038 335.88665442 -59.99427223 334.71495342 C -61.32747134 329.30912623 -61.2427781 323.96954421 -61.22689819 318.4289093 C -61.23142931 317.26335028 -61.23596042 316.09779127 -61.24062884 314.89691228 C -61.25106368 311.67919168 -61.25260475 308.46161243 -61.25024009 305.24388039 C -61.24983055 301.76655946 -61.26088413 298.2892714 -61.27035522 294.81196594 C -61.28693725 288.00541756 -61.29246352 281.19890383 -61.29357998 274.39233694 C -61.29453187 268.85630687 -61.29864923 263.32028818 -61.30498123 257.7842617 C -61.32258676 242.07084161 -61.33182129 226.35744878 -61.33032028 210.64401875 C -61.33020042 209.37450559 -61.33020042 209.37450559 -61.33007812 208.0793457 C -61.32999636 207.23196393 -61.3299146 206.38458215 -61.32983036 205.51152214 C -61.32901787 191.78586369 -61.348148 178.06031509 -61.37635486 164.3346884 C -61.40512319 150.2238997 -61.41889295 136.1131645 -61.41716731 122.00234574 C -61.41650472 114.08722841 -61.42193906 106.17222622 -61.44352341 98.25713539 C -61.46178737 91.51670081 -61.46604004 84.77643354 -61.45250456 78.03598485 C -61.44600076 74.60137466 -61.4457628 71.16708496 -61.46321106 67.7325058 C -61.47871502 63.99747915 -61.46932 60.2632841 -61.45394897 56.52827454 C -61.4642361 55.45878722 -61.47452323 54.3892999 -61.48512208 53.28740388 C -61.35508671 38.9062332 -56.14756291 25.28518528 -46.20947266 14.84863281 C -41.54202008 10.42683563 -36.67394188 7.08121692 -30.95947266 4.16113281 C -30.33169922 3.83371094 -29.70392578 3.50628906 -29.05712891 3.16894531 C -20.12703711 -1.08347935 -9.64544367 0.0064559 0 0 Z M -23.27197266 40.78613281 C -25.63915721 44.11772588 -26.08504427 45.79149975 -26.09090042 49.82580185 C -26.09474157 50.8153681 -26.09858271 51.80493434 -26.10254025 52.82448745 C -26.10167377 53.91959836 -26.10080729 55.01470928 -26.09991455 56.14300537 C -26.10288567 57.3002097 -26.1058568 58.45741402 -26.10891795 59.64968514 C -26.11611326 62.87163825 -26.11877844 66.09355893 -26.11951542 69.31551886 C -26.12136315 72.7866663 -26.12890912 76.25780212 -26.13565063 79.72894287 C -26.14924668 87.3240248 -26.1552608 94.91910146 -26.15966129 102.51419353 C -26.16242187 107.2551122 -26.16665891 111.99602882 -26.17116547 116.73694611 C -26.18336037 129.85847216 -26.19365887 142.97999657 -26.19704056 156.10152817 C -26.19726012 156.94175015 -26.19747969 157.78197213 -26.19770591 158.64765538 C -26.19792419 159.48991166 -26.19814247 160.33216793 -26.19836736 161.19994712 C -26.19881083 162.90673558 -26.19925739 164.61352404 -26.19970703 166.3203125 C -26.19992846 167.16694223 -26.20014989 168.01357196 -26.20037803 168.88585714 C -26.20432585 182.60367028 -26.22177839 196.3214303 -26.24506655 210.03922293 C -26.26877327 224.11701182 -26.28124212 238.19477406 -26.28240848 252.27258325 C -26.28332568 260.17916521 -26.28908932 268.08567798 -26.30722809 275.99224091 C -26.32261999 282.72530993 -26.32775499 289.45828838 -26.31948999 296.19137165 C -26.31558006 299.62704919 -26.3165295 303.0625443 -26.33054733 306.49819946 C -26.34319278 310.22273315 -26.33742986 313.94679575 -26.32696533 317.67132568 C -26.33502174 318.75751371 -26.34307814 319.84370174 -26.35137868 320.96280456 C -26.30901327 327.39168128 -26.06322818 332.05038422 -21.29979503 336.82454985 C -16.28259351 341.0870174 -12.33868799 342.02609907 -5.87557983 341.90284729 C -4.55473119 341.91371216 -4.55473119 341.91371216 -3.20719874 341.92479652 C -0.27415957 341.94162399 2.65689454 341.91578896 5.58984375 341.88989258 C 7.69949371 341.89311335 9.80914105 341.89893285 11.91877747 341.90715027 C 17.63572974 341.92166665 23.35197725 341.89876686 29.06884432 341.86829114 C 35.05446325 341.8419045 41.04006108 341.84722282 47.02572632 341.84837341 C 57.07472501 341.84556572 67.12345156 341.8195425 77.17236328 341.77856445 C 88.7899779 341.7313645 100.40729473 341.71557116 112.02499831 341.71777111 C 124.39700235 341.71979748 136.76889162 341.69897643 149.14086103 341.6714313 C 152.70509369 341.66503816 156.26930782 341.66290789 159.83354568 341.66171455 C 165.43311391 341.6587007 171.03243222 341.6403821 176.63191795 341.61021614 C 178.68701204 341.60145532 180.7421349 341.59776218 182.79724693 341.59949875 C 185.60196405 341.60097189 188.40598214 341.58399562 191.21060181 341.56227112 C 192.02422168 341.56691692 192.83784156 341.57156273 193.67611659 341.57634932 C 199.35311776 341.50370419 203.59297026 340.41883746 207.90380859 336.44238281 C 208.38205078 335.85457031 208.86029297 335.26675781 209.35302734 334.66113281 C 209.84416016 334.07332031 210.33529297 333.48550781 210.84130859 332.87988281 C 213.53096763 329.02499689 213.17850328 325.00318995 213.16078186 320.51130676 C 213.16163629 319.72470143 213.16249071 318.93809611 213.16337103 318.12765425 C 213.16502227 315.48359878 213.15951025 312.8396063 213.15405273 310.19555664 C 213.15377076 308.30351259 213.1539288 306.41146843 213.15449524 304.51942444 C 213.15478281 299.37512851 213.14889251 294.23085578 213.14192128 289.08656526 C 213.13568112 283.71336627 213.13508342 278.34016678 213.13389587 272.96696472 C 213.13078452 262.78851048 213.12257375 252.61006696 213.11254638 242.43161744 C 213.10137919 230.84531268 213.09587326 219.25900742 213.09085095 207.67269862 C 213.08039099 183.83550407 213.06279532 159.99831904 213.04052734 136.16113281 C 212.28821335 136.15748718 211.53589935 136.15384155 210.76078796 136.15008545 C 203.62660216 136.11201798 196.49292781 136.05495611 189.35907269 135.97723007 C 185.69257154 135.93793403 182.02630412 135.90565915 178.35961914 135.89013672 C 174.81258922 135.87485069 171.26620267 135.84019903 167.71946144 135.79282379 C 165.72629766 135.77104382 163.73295169 135.7686694 161.7396698 135.76678467 C 147.55427282 135.54128968 135.63173278 130.7162557 125.29052734 120.91113281 C 115.74313724 110.8576973 111.05010949 99.06284213 110.83520508 85.24755859 C 110.81525986 84.10682892 110.79531464 82.96609924 110.77476501 81.790802 C 110.74969627 79.96704544 110.74969627 79.96704544 110.72412109 78.10644531 C 110.70334 76.84976044 110.6825589 75.59307556 110.66114807 74.29830933 C 110.60698122 70.9742758 110.55668942 67.65023024 110.50830078 64.32611084 C 110.45786239 60.92731564 110.40229351 57.52860465 110.34716797 54.12988281 C 110.24024477 47.4737001 110.13843271 40.81745395 110.04052734 34.16113281 C 93.84621453 34.06764206 77.65198941 33.99713051 61.45747185 33.95388412 C 53.93786466 33.93326927 46.41842526 33.90516949 38.89892578 33.859375 C 32.3440086 33.81947398 25.78921296 33.79369216 19.23417771 33.78477883 C 15.76409808 33.77956952 12.29436611 33.76734887 8.82439804 33.73821259 C 4.94829602 33.70593088 1.07253242 33.70517551 -2.80371094 33.70703125 C -4.52461693 33.68545959 -4.52461693 33.68545959 -6.2802887 33.66345215 C -14.22638261 33.70467114 -17.92673222 34.71856259 -23.27197266 40.78613281 Z" stroke-linecap="round"/>
</g>
		<g transform="matrix(1 0 0 1 0.06 17.67)">
<path style="stroke: none; stroke-width: 1; stroke-dasharray: none; stroke-linecap: butt; stroke-dashoffset: 0; stroke-linejoin: miter; stroke-miterlimit: 4; fill:#528ce3; fill-rule: nonzero; opacity: 1;" vector-effect="non-scaling-stroke" transform=" translate(-68.26, -17.21)" d="M 0 0 C 1.23792801 -0.0071553 2.47585602 -0.01431061 3.751297 -0.02168274 C 5.13081335 -0.02452316 6.51032997 -0.02723487 7.8898468 -0.02983093 C 9.33689538 -0.03609473 10.78394235 -0.04274146 12.23098755 -0.04974365 C 16.16922445 -0.06716374 20.1074492 -0.07770867 24.04571509 -0.08594918 C 26.50650032 -0.09109838 28.96728178 -0.09717423 31.42806435 -0.10346031 C 39.1279595 -0.12251727 46.82784504 -0.13674598 54.52775925 -0.14507228 C 63.41433133 -0.15484034 72.30065404 -0.18114634 81.18713826 -0.22157317 C 88.0560231 -0.25174809 94.92483652 -0.26654255 101.79378635 -0.26985329 C 105.89595871 -0.27220268 109.99786482 -0.28114802 114.09996605 -0.30631447 C 117.96189426 -0.32962377 121.82338149 -0.33381717 125.68536186 -0.32355309 C 127.09987608 -0.32305826 128.5144122 -0.32936297 129.92885971 -0.34310913 C 143.21258265 -0.46494106 143.21258265 -0.46494106 149.1879425 4.14717102 C 152.85535707 7.90862186 153.49082462 10.99139932 153.6879425 16.08467102 C 153.46538475 21.70425431 152.75471337 24.77787672 149.1879425 29.14717102 C 142.62291198 35.15803026 135.56886998 34.84800869 127.06440735 34.7624054 C 125.64440245 34.76591127 124.22440149 34.7715751 122.80441284 34.77922058 C 118.96756559 34.79340899 115.13144011 34.7764679 111.294662 34.75293541 C 107.27094324 34.73275723 103.24725242 34.73870944 99.22349548 34.74104309 C 92.46998762 34.74098961 85.71676036 34.72128227 78.96333313 34.68916321 C 71.16290133 34.65224427 63.36283647 34.64349267 55.5623287 34.65046072 C 48.04553182 34.65677145 40.52886033 34.64600282 33.01208878 34.62649536 C 29.81844415 34.61833518 26.62486373 34.61560924 23.43120956 34.6171875 C 19.67014368 34.61806815 15.90942508 34.60380217 12.14845085 34.57796097 C 10.77063239 34.57081596 9.39277694 34.56870752 8.01494408 34.5720787 C 6.13007144 34.57581002 4.24519167 34.55916164 2.36039734 34.5415802 C 0.78035951 34.53598713 0.78035951 34.53598713 -0.83159828 34.53028107 C -5.99749431 33.86625364 -9.85808298 31.66202918 -13.1245575 27.64717102 C -13.61569031 27.05935852 -14.10682312 26.47154602 -14.61283875 25.86592102 C -17.65574331 21.50475487 -17.38378781 16.237159 -16.8120575 11.14717102 C -13.12276842 3.76859287 -8.10260454 0.03204754 0 0 Z" stroke-linecap="round"/>
</g>
		<g transform="matrix(1 0 0 1 -0.14 85.59)">
<path style="stroke: none; stroke-width: 1; stroke-dasharray: none; stroke-linecap: butt; stroke-dashoffset: 0; stroke-linejoin: miter; stroke-miterlimit: 4; fill:#528ce3; fill-rule: nonzero; opacity: 1;" vector-effect="non-scaling-stroke" transform=" translate(-58.8, -17.52)" d="M 0 0 C 1.42646677 -0.00706514 2.85292605 -0.01581266 4.27937317 -0.02610779 C 8.13900047 -0.04854555 11.99821661 -0.04567533 15.85788417 -0.03678632 C 19.08595083 -0.03166383 22.31394109 -0.03897921 25.54199988 -0.04625839 C 33.16022977 -0.06323966 40.77825927 -0.05970964 48.39648438 -0.04296875 C 56.24297525 -0.02604868 64.08890975 -0.04188406 71.93533987 -0.07419163 C 78.68463651 -0.10092389 85.43376033 -0.10815377 92.18310457 -0.09967655 C 96.20867646 -0.09475792 100.23391369 -0.09690483 104.25944328 -0.11746407 C 108.04607985 -0.13587874 111.83191888 -0.12979317 115.61851311 -0.10526466 C 117.00356655 -0.10027495 118.38868138 -0.10369869 119.77368546 -0.11641312 C 127.73517769 -0.18368657 133.79412431 0.08334111 139.92993164 5.53344727 C 143.97630499 9.97140513 144.22496358 14.24775017 144.14086914 20.03344727 C 143.71769406 25.04885568 141.61147178 28.12231013 137.92993164 31.34594727 C 133.79727328 34.35934399 131.06661777 34.661221 126.08027649 34.68734741 C 124.85924728 34.69594788 123.63821808 34.70454834 122.38018799 34.71340942 C 121.0247807 34.71784455 119.66937296 34.72214291 118.31396484 34.72631836 C 116.8880951 34.73422113 115.46222735 34.74249019 114.03636169 34.75109863 C 109.35116481 34.77730153 104.66595907 34.79262592 99.98071289 34.80688477 C 98.36655357 34.81224542 96.7523943 34.81762293 95.13823509 34.82301712 C 88.42214005 34.84464454 81.70604739 34.86337996 74.98992634 34.87463951 C 65.37240449 34.89087039 55.75528717 34.9240285 46.13791782 34.98104036 C 39.37175855 35.0197791 32.60570729 35.03927692 25.83944005 35.04456007 C 21.8003364 35.04820858 17.76166438 35.06017559 13.72268105 35.09266281 C 9.9197629 35.12281268 6.11753597 35.12903116 2.3145237 35.11727905 C 0.92299315 35.11705888 -0.46857011 35.12531731 -1.85998917 35.14293289 C -9.65386264 35.23618928 -16.20268882 35.19147125 -22.07006836 29.53344727 C -25.41175276 24.96423614 -26.80934439 20.44522467 -26.51538086 14.77172852 C -25.43005143 9.31652006 -22.69608419 5.77194408 -18.33836365 2.45277405 C -12.67752406 -0.68284327 -6.29033137 -0.03278401 0 0 Z" stroke-linecap="round"/>
</g>
		<g transform="matrix(1 0 0 1 -50.97 -51.45)">
<path style="stroke: none; stroke-width: 1; stroke-dasharray: none; stroke-linecap: butt; stroke-dashoffset: 0; stroke-linejoin: miter; stroke-miterlimit: 4; fill:#528ce3; fill-rule: nonzero; opacity: 1;" vector-effect="non-scaling-stroke" transform=" translate(-16.97, -17.14)" d="M 0 0 C 1.22223518 -0.02409439 1.22223518 -0.02409439 2.46916199 -0.04867554 C 6.20013393 -0.09339012 9.93093162 -0.13420804 13.66210938 -0.15722656 C 15.62414437 -0.17375374 17.58611996 -0.20100086 19.54785156 -0.23925781 C 22.38809193 -0.29431515 25.22692319 -0.31594612 28.06762695 -0.33056641 C 28.93562424 -0.35323578 29.80362152 -0.37590515 30.69792175 -0.39926147 C 36.96817239 -0.37774596 41.06192432 1.22418955 45.9309082 5.19287109 C 50.32136171 10.03362752 51.33826753 13.09115509 51.2824707 19.51708984 C 50.58975044 24.78946073 47.66515798 28.56372736 43.8684082 32.13037109 C 40.51142665 33.97129646 37.3208956 34.3204621 33.53295898 34.36987305 C 32.24109177 34.3891259 32.24109177 34.3891259 30.92312622 34.4087677 C 30.0001474 34.41615463 29.07716858 34.42354156 28.1262207 34.43115234 C 27.16948456 34.43922409 26.21274841 34.44729584 25.22702026 34.45561218 C 23.20466919 34.46942749 21.18229504 34.48016104 19.15991211 34.48803711 C 17.09408732 34.49957349 15.02829272 34.52005131 12.96264648 34.54956055 C 9.9752988 34.59223694 6.98883538 34.60840499 4.0012207 34.61865234 C 2.62282516 34.64491447 2.62282516 34.64491447 1.21658325 34.67170715 C -4.3986342 34.6527714 -7.62571373 33.96210823 -12.0690918 30.19287109 C -16.58642661 25.18717576 -17.43274104 21.34157972 -17.34643555 14.76318359 C -16.8980398 10.60762863 -15.60963116 8.53568605 -13.0690918 5.19287109 C -8.82049757 1.89804291 -5.37316701 0.09659983 0 0 Z" stroke-linecap="round"/>
</g>
		<g transform="matrix(1 0 0 1 81.38 -115.66)">
<path style="stroke: none; stroke-width: 1; stroke-dasharray: none; stroke-linecap: butt; stroke-dashoffset: 0; stroke-linejoin: miter; stroke-miterlimit: 4; fill:#dbeafd; fill-rule: nonzero; opacity: 1;" vector-effect="non-scaling-stroke" transform=" translate(-30.39, -30.73)" d="M 0 0 C 6.93105929 5.67765592 13.17470876 12.02935428 19.49609375 18.36328125 C 20.6966365 19.56314957 21.8973276 20.76286947 23.09815979 21.96244812 C 25.60018853 24.46300989 28.10041754 26.96535342 30.59936523 29.46899414 C 33.80962431 32.68498711 37.02440205 35.89641998 40.24050808 39.10656452 C 42.71374263 41.57619793 45.18460593 44.04819263 47.65474129 46.52092552 C 48.84020566 47.70705849 50.02641748 48.8924449 51.213377 50.07708168 C 52.86269298 51.7238745 54.50879753 53.37380979 56.15405273 55.0246582 C 56.6479953 55.51657654 57.14193787 56.00849487 57.65084839 56.51531982 C 61 59.88572986 61 59.88572986 61 61 C 54.13163921 61.10158627 47.26347283 61.17154375 40.39453125 61.21972656 C 38.05884562 61.23981709 35.72321013 61.26709461 33.38769531 61.30175781 C 30.02656669 61.35038691 26.66610425 61.37299492 23.3046875 61.390625 C 21.74341629 61.42159271 21.74341629 61.42159271 20.15060425 61.45318604 C 14.08189598 61.45505588 10.62226639 61.04089006 6 57 C 1.82779124 52.48010718 -0.26038355 48.30114815 -0.22705078 42.11791992 C -0.22689972 41.17732224 -0.22674866 40.23672455 -0.22659302 39.2676239 C -0.21627045 38.2653627 -0.20594788 37.2631015 -0.1953125 36.23046875 C -0.1924826 35.19432938 -0.18965271 34.15819 -0.18673706 33.09065247 C -0.17556454 29.78948293 -0.15046505 26.48858719 -0.125 23.1875 C -0.11496643 20.94596747 -0.10584124 18.70443067 -0.09765625 16.46289062 C -0.07563478 10.9751674 -0.04218621 5.48760326 0 0 Z" stroke-linecap="round"/>
</g>
		<g transform="matrix(1 0 0 1 26.49 294.27)">
<path style="stroke: none; stroke-width: 1; stroke-dasharray: none; stroke-linecap: butt; stroke-dashoffset: 0; stroke-linejoin: miter; stroke-miterlimit: 4; fill:#dbeafd; fill-rule: nonzero; opacity: 1;" vector-effect="non-scaling-stroke" transform=" translate(9.5, -1.66)" d="M 0 0 C -1.09375 1.48046875 -1.09375 1.48046875 -3 3 C -6.03125 3.36328125 -6.03125 3.36328125 -9.5 3.3125 C -10.6446875 3.30863281 -11.789375 3.30476562 -12.96875 3.30078125 C -16 3 -16 3 -19 1 C -12.62694402 0.25492456 -6.41688675 -0.10349817 0 0 Z" stroke-linecap="round"/>
</g>
		<g transform="matrix(1 0 0 1 -290.51 51.11)">
<path style="stroke: none; stroke-width: 1; stroke-dasharray: none; stroke-linecap: butt; stroke-dashoffset: 0; stroke-linejoin: miter; stroke-miterlimit: 4; fill:#dbeafd; fill-rule: nonzero; opacity: 1;" vector-effect="non-scaling-stroke" transform=" translate(-1.5, -7.5)" d="M 0 0 C 1.8844171 3.7688342 2.33429462 5.68012475 2.625 9.75 C 2.69976562 10.73484375 2.77453125 11.7196875 2.8515625 12.734375 C 2.92503906 13.85585938 2.92503906 13.85585938 3 15 C 2.67 14.01 2.34 13.02 2 12 C 1.34 12 0.68 12 0 12 C 0 8.04 0 4.08 0 0 Z" stroke-linecap="round"/>
</g>
		<g transform="matrix(1 0 0 1 -272.51 115.11)">
<path style="stroke: none; stroke-width: 1; stroke-dasharray: none; stroke-linecap: butt; stroke-dashoffset: 0; stroke-linejoin: miter; stroke-miterlimit: 4; fill:#dbeafd; fill-rule: nonzero; opacity: 1;" vector-effect="non-scaling-stroke" transform=" translate(-1.5, -5.5)" d="M 0 0 C 2.27795022 2.27795022 3.05219877 3.93787293 4 7 C 3.625 9.3125 3.625 9.3125 3 11 C 1.47657021 8.06195683 0.07229283 5.13439441 -1 2 C -0.67 1.34 -0.34 0.68 0 0 Z" stroke-linecap="round"/>
</g>
		<g transform="matrix(1 0 0 1 -293.51 33.11)">
<path style="stroke: none; stroke-width: 1; stroke-dasharray: none; stroke-linecap: butt; stroke-dashoffset: 0; stroke-linejoin: miter; stroke-miterlimit: 4; fill:#dbeafd; fill-rule: nonzero; opacity: 1;" vector-effect="non-scaling-stroke" transform=" translate(-0.5, -6.5)" d="M 0 0 C 0.33 0 0.66 0 1 0 C 1.33 4.29 1.66 8.58 2 13 C 1.67 13 1.34 13 1 13 C 1 11.35 1 9.7 1 8 C 0.34 8 -0.32 8 -1 8 C -0.67 5.36 -0.34 2.72 0 0 Z" stroke-linecap="round"/>
</g>
</g>
</g>
</svg>