<?xml version="1.0" encoding="UTF-8" standalone="no" ?>
<!DOCTYPE svg PUBLIC "-//W3C//DTD SVG 1.1//EN" "http://www.w3.org/Graphics/SVG/1.1/DTD/svg11.dtd">
<svg xmlns="http://www.w3.org/2000/svg" xmlns:xlink="http://www.w3.org/1999/xlink" version="1.1" width="1080" height="1080" viewBox="0 0 1080 1080" xml:space="preserve">
<desc>Created with Fabric.js 5.2.4</desc>
<defs>
</defs>
<g transform="matrix(1 0 0 1 540 540)" id="a4bbb9c7-d5d3-4a18-8d3a-cedf0fbd8829"  >
</g>
<g transform="matrix(1 0 0 1 540 540)" id="9b1e20d9-83a2-4382-bc23-7672bdcf2741"  >
<rect style="stroke: none; stroke-width: 1; stroke-dasharray: none; stroke-linecap: butt; stroke-dashoffset: 0; stroke-linejoin: miter; stroke-miterlimit: 4; fill: rgb(255,255,255); fill-rule: nonzero; opacity: 1; visibility: hidden;" vector-effect="non-scaling-stroke"  x="-540" y="-540" rx="0" ry="0" width="1080" height="1080" />
</g>
<g transform="matrix(1.44 0 0 1.44 505.85 372.3)"  >
<path style="stroke: none; stroke-width: 1; stroke-dasharray: none; stroke-linecap: butt; stroke-dashoffset: 0; stroke-linejoin: miter; stroke-miterlimit: 4; fill: rgb(253,97,76); fill-rule: nonzero; opacity: 1;" vector-effect="non-scaling-stroke"  transform=" translate(-374.68, -284.64)" d="M 416.750366 147.940979 C 418.11377 148.703278 419.477203 149.465576 421.03949 150.801102 C 421.517761 151.584641 421.797089 151.794952 422.076447 152.005264 C 422.076447 152.005264 422.012573 151.9841 421.986938 152.425903 C 421.973755 208.355423 421.996674 263.84314 421.973663 319.330841 C 421.972229 322.809509 421.611664 326.288025 421.264832 330.096436 C 390.816559 360.796173 360.521637 391.166168 329.911926 421.329346 C 329.108582 421.008209 328.620026 420.89386 328.115173 420.324768 C 328.079376 392.587891 328.079315 365.305695 328.01236 338.023651 C 328.005096 335.052887 327.611969 332.083069 327.495911 328.868835 C 327.624512 328.45224 327.655029 328.279633 327.804016 327.63855 C 327.9646 271.281647 328.011871 215.39325 328.016418 159.504837 C 328.01651 158.230667 327.532776 156.956467 327.274719 155.682281 C 328.246826 152.481506 328.615417 148.846466 333.66507 148.086212 C 337.997742 148.183395 341.487061 148.162018 344.97641 148.151596 C 368.901062 148.080109 392.825714 148.01091 416.750366 147.940979 z" stroke-linecap="round" />
</g>
<g transform="matrix(1.44 0 0 1.44 629.51 506.67)"  >
<path style="stroke: none; stroke-width: 1; stroke-dasharray: none; stroke-linecap: butt; stroke-dashoffset: 0; stroke-linejoin: miter; stroke-miterlimit: 4; fill: rgb(29,201,224); fill-rule: nonzero; opacity: 1;" vector-effect="non-scaling-stroke"  transform=" translate(-461.57, -376.05)" d="M 330.226715 421.536133 C 360.521637 391.166168 390.816559 360.796173 421.507812 330.124695 C 422.529144 329.220093 423.154175 328.617035 424.236023 328.096313 C 436.855591 328.183624 449.018372 328.201904 461.181152 328.19101 C 501.836578 328.154572 542.492004 328.107666 583.1474 328.064758 C 587.979248 327.453491 591.723938 328.631104 592.796875 334.724731 C 592.760559 351.556488 592.967896 367.66748 592.892395 383.777161 C 592.838684 395.21756 592.403564 406.656189 592.138672 418.095612 C 591.194031 419.117889 590.249512 420.140167 588.688721 421.444061 C 584.430786 421.962097 580.789185 422.399658 577.147095 422.404388 C 532.082092 422.463287 487.016754 422.381439 441.952332 422.550171 C 434.720032 422.577301 427.491608 423.651245 419.717346 424.171936 C 391.747253 424.073273 364.321106 424.07251 336.895416 423.961456 C 334.660736 423.952423 332.429077 423.190521 330.2948 422.578613 C 330.535034 422.059113 330.479401 421.778259 330.226715 421.536133 z" stroke-linecap="round" />
</g>
<g transform="matrix(1.44 0 0 1.44 505.88 703.56)"  >
<path style="stroke: none; stroke-width: 1; stroke-dasharray: none; stroke-linecap: butt; stroke-dashoffset: 0; stroke-linejoin: miter; stroke-miterlimit: 4; fill: rgb(137,97,208); fill-rule: nonzero; opacity: 1;" vector-effect="non-scaling-stroke"  transform=" translate(-375.02, -513.29)" d="M 330.196014 422.778473 C 332.429077 423.190521 334.660736 423.952423 336.895416 423.961456 C 364.321106 424.07251 391.747253 424.073273 419.885712 424.364136 C 421.074493 426.786346 421.962494 428.946198 421.967072 431.10791 C 422.085968 487.248688 422.113098 543.389648 422.156067 599.530579 C 419.932709 603.254517 416.615967 603.819336 412.472565 603.790283 C 386.979645 603.611084 361.484253 603.664368 335.990509 603.794434 C 330.375702 603.823059 328.707581 600.474426 328.033661 595.00293 C 328.071899 537.436401 328.075867 480.731689 328.027679 423.749481 C 327.939667 423.287231 327.903839 423.102448 327.892822 422.902893 C 327.917633 422.888153 327.972992 422.871613 328.343079 422.890198 C 329.207458 422.865326 329.701721 422.821899 330.196014 422.778473 z" stroke-linecap="round" />
</g>
<g transform="matrix(1.44 0 0 1.44 315.92 505.55)"  >
<path style="stroke: none; stroke-width: 1; stroke-dasharray: none; stroke-linecap: butt; stroke-dashoffset: 0; stroke-linejoin: miter; stroke-miterlimit: 4; fill: rgb(82,99,107); fill-rule: nonzero; opacity: 1;" vector-effect="non-scaling-stroke"  transform=" translate(-243.01, -375.99)" d="M 327.397827 329.112793 C 327.611969 332.083069 328.005096 335.052887 328.01236 338.023651 C 328.079315 365.305695 328.079376 392.587891 328.067078 420.67215 C 328.014496 421.940033 327.993744 422.405823 327.972992 422.871613 C 327.972992 422.871613 327.917633 422.888153 327.522034 422.739441 C 324.48941 422.367767 321.852509 421.952515 319.215302 421.950378 C 269.281952 421.909821 219.348572 421.935974 169.415314 421.864777 C 166.836243 421.861115 164.258224 421.112091 161.479355 420.578857 C 160.823257 420.292358 160.367523 420.137085 159.911789 419.981812 C 159.911789 419.981812 160.007065 419.994171 159.982849 419.704468 C 159.511551 417.971191 159.064484 416.527588 158.535522 414.616577 C 158.48381 388.19812 158.513962 362.247101 158.608795 336.029694 C 158.434143 335.501831 158.194839 335.240326 157.955536 334.978821 C 159.391495 332.99054 160.827454 331.002228 162.973877 329.283813 C 165.16568 329.69342 166.646973 329.954681 168.128372 329.955322 C 218.750443 329.976349 269.372528 329.984741 319.994568 329.936066 C 322.462585 329.933716 324.930084 329.399414 327.397827 329.112793 z" stroke-linecap="round" />
</g>
<g transform="matrix(1.44 0 0 1.44 470.17 799.94)"  >
<path style="stroke: none; stroke-width: 1; stroke-dasharray: none; stroke-linecap: butt; stroke-dashoffset: 0; stroke-linejoin: miter; stroke-miterlimit: 4; fill: rgb(113,120,126); fill-rule: nonzero; opacity: 1;" vector-effect="non-scaling-stroke"  transform=" translate(-326.51, -555.51)" d="M 326.355408 554.983765 C 326.653564 555.121399 326.75116 555.474426 326.659851 556.045166 C 326.36557 555.908325 326.260223 555.553772 326.355408 554.983765 z" stroke-linecap="round" />
</g>
</svg>