<?xml version="1.0" encoding="UTF-8"?>
<svg version="1.1" xmlns="http://www.w3.org/2000/svg" width="512" height="512" fill="gray">
<path d="M0 0 C1.77845031 -0.00599307 3.55689804 -0.0128004 5.33534241 -0.02035522 C10.1435365 -0.0379457 14.95165929 -0.04270773 19.75988245 -0.0439868 C22.77155825 -0.0454132 25.7832162 -0.04969208 28.79488754 -0.05498123 C39.32371918 -0.07346034 49.85250034 -0.08165473 60.38134766 -0.08007812 C70.15952325 -0.07887814 79.93747761 -0.09995785 89.71559727 -0.13156545 C98.13976891 -0.15781541 106.56386869 -0.16844174 114.98808086 -0.16716731 C120.0064472 -0.16666012 125.02461685 -0.17220724 130.04294205 -0.19352341 C134.76927401 -0.21305273 139.49522465 -0.21293105 144.22157097 -0.19849014 C145.94352597 -0.19641885 147.66550579 -0.20100104 149.38741875 -0.21321106 C168.4897533 -0.33975131 187.12087045 3.07599605 201.44335938 16.75317383 C202.00068567 17.27677962 202.55801197 17.80038542 203.13222694 18.33985806 C209.23103956 24.09592702 215.20789269 29.97685837 221.15576172 35.88818359 C221.73086109 36.45920744 222.30596046 37.03023129 222.89848709 37.61855888 C225.93096571 40.63044508 228.96035028 43.6454043 231.98730469 46.6628418 C235.08174844 49.74615446 238.18772716 52.81757874 241.29628563 55.88665104 C243.7190069 58.28307956 246.13265862 60.6884937 248.54405594 63.09631157 C249.68477938 64.23221796 250.8288285 65.3647962 251.97648239 66.49370003 C260.38613497 74.77419087 267.65924846 83.31977052 272.13232422 94.41552734 C272.51001953 95.32560547 272.88771484 96.23568359 273.27685547 97.17333984 C275.91131057 105.04710452 276.61096421 112.37674502 276.58052063 120.65620422 C276.58434618 121.77023705 276.58817172 122.88426988 276.5921132 124.03206128 C276.60239627 127.74888047 276.59845991 131.46554382 276.59448242 135.18237305 C276.59883151 137.85385649 276.60395123 140.52532867 276.60997009 143.19680786 C276.62269153 149.69073191 276.62451395 156.18461456 276.62216983 162.67854897 C276.6203835 167.95998669 276.62214305 173.2414119 276.62639427 178.52284813 C276.62698946 179.27583766 276.62758465 180.0288272 276.62819787 180.8046346 C276.62940969 182.33457302 276.63062382 183.86451144 276.63184025 185.39444985 C276.64270613 199.72883366 276.64055792 214.06319391 276.63445541 228.39757904 C276.62928814 241.49334566 276.64053836 254.58903785 276.65955362 267.68478975 C276.67895509 281.15036743 276.68718391 294.61590993 276.68343037 308.08150166 C276.6815217 315.63381506 276.68397322 323.18606513 276.69814491 330.73836708 C276.71008922 337.16843919 276.71142963 343.598409 276.69935475 350.02848259 C276.69348709 353.30496457 276.69395126 356.58122223 276.70435715 359.85769844 C276.71485197 363.41993682 276.70670138 366.9816786 276.69404602 370.54389954 C276.70142031 371.56503525 276.70879459 372.58617096 276.71639234 373.63825017 C276.60121324 389.13030662 271.37564335 401.77559258 260.73779297 413.00146484 C248.54004851 424.54892567 234.37697499 428.61364441 217.88583374 428.55795288 C216.88402466 428.56248399 215.88221559 428.56701511 214.85004866 428.57168353 C211.51879962 428.58426615 208.18771537 428.58271112 204.85644531 428.58105469 C202.45731396 428.58704383 200.05818453 428.59385026 197.65905762 428.60140991 C191.83302714 428.61721068 186.00704599 428.62351668 180.18099515 428.62463467 C175.43975578 428.62558822 170.69852965 428.6297138 165.95729446 428.63603592 C152.48438784 428.65363268 139.01151296 428.66287742 125.53859477 428.66137497 C124.81365146 428.66129506 124.08870816 428.66121515 123.34179688 428.66113281 C122.253038 428.66101017 122.253038 428.66101017 121.14228399 428.66088505 C109.39106199 428.66007293 97.63996839 428.67919597 85.8887835 428.70740955 C73.79272781 428.73621949 61.69673458 428.74994535 49.60064375 428.74822199 C42.82172378 428.74756081 36.04293839 428.7529328 29.26404953 428.77457809 C22.88306497 428.79403515 16.50236332 428.79403382 10.12136841 428.77954483 C7.78986825 428.77746479 5.45835004 428.78210912 3.12688065 428.79426575 C-18.14177771 428.8979111 -35.20952968 426.90351906 -51.35595703 411.77099609 C-60.3254342 402.19852886 -65.79540939 389.61269668 -65.81160355 376.46137142 C-65.81544469 375.28839565 -65.81928584 374.11541988 -65.82324338 372.90689939 C-65.8223769 371.62229041 -65.82151042 370.33768143 -65.82061768 369.0141449 C-65.82320235 367.63244817 -65.8262158 366.25075219 -65.82962108 364.86905724 C-65.83768249 361.07258879 -65.83948017 357.27613925 -65.84021854 353.47966325 C-65.84207063 349.38472702 -65.84961883 345.28980057 -65.85635376 341.19487 C-65.86993225 332.24010183 -65.87596126 323.28533815 -65.88036442 314.3305614 C-65.88312807 308.737123 -65.88736569 303.14368633 -65.89186859 297.5502491 C-65.90406141 282.0584127 -65.91436019 266.56657769 -65.91774368 251.0747366 C-65.91796325 250.08331356 -65.91818282 249.09189053 -65.91840903 248.07042438 C-65.91862731 247.07664787 -65.91884559 246.08287136 -65.91907048 245.05898041 C-65.91951395 243.04526102 -65.91996051 241.03154164 -65.92041016 239.01782227 C-65.92063159 238.01895094 -65.92085302 237.0200796 -65.92108116 235.99093945 C-65.9250273 219.81362755 -65.94247568 203.63636075 -65.96576968 187.45906626 C-65.98950174 170.84314589 -66.00194641 154.22724813 -66.0031116 137.61131054 C-66.0040274 128.28494598 -66.00975565 118.95864015 -66.02793121 109.63229179 C-66.04335734 101.68881563 -66.04843792 93.74541634 -66.04019311 85.80192804 C-66.03629528 81.75184079 -66.03717356 77.70190826 -66.05125046 73.65184021 C-66.06404181 69.9375229 -66.06274638 66.22347572 -66.05065975 62.5091585 C-66.04779532 60.54288116 -66.05959883 58.57659893 -66.0720818 56.61035913 C-65.98213864 40.35155334 -61.34226041 27.44523977 -50.09814453 15.57958984 C-35.49837814 1.75816318 -19.22201413 -0.01297169 0 0 Z M-36.07470703 33.22802734 C-41.45303129 40.13740742 -43.80066589 47.32155304 -43.81160355 56.00033092 C-43.81544469 57.14667293 -43.81928584 58.29301493 -43.82324338 59.47409457 C-43.8223769 60.72894021 -43.82151042 61.98378584 -43.82061768 63.2766571 C-43.82320244 64.62678083 -43.82621591 65.9769038 -43.82962108 67.32702571 C-43.83768129 71.03614289 -43.8394801 74.74524071 -43.84021854 78.45436561 C-43.84207081 82.4551933 -43.84961902 86.45601099 -43.85635376 90.45683289 C-43.86993071 99.20486175 -43.87596082 107.95288603 -43.88036442 116.70092368 C-43.88312795 122.16435897 -43.88736551 127.62779249 -43.89186859 133.09122658 C-43.90406049 148.22106026 -43.91435992 163.35089252 -43.91774368 178.48073101 C-43.91796325 179.44891628 -43.91818282 180.41710154 -43.91840903 181.41462575 C-43.91862731 182.3851136 -43.91884559 183.35560145 -43.91907048 184.35549802 C-43.91951395 186.322041 -43.91996051 188.28858397 -43.92041016 190.25512695 C-43.92063159 191.23059799 -43.92085302 192.20606902 -43.92108116 193.21109978 C-43.92502857 209.01470475 -43.94248124 224.8182636 -43.96576968 240.62185075 C-43.98949241 256.85129727 -44.00194596 273.08072064 -44.0031116 289.31018478 C-44.00402785 298.42074554 -44.00976752 307.5312462 -44.02793121 316.64179039 C-44.04334464 324.40013938 -44.04844533 332.15840969 -44.04019311 339.91677108 C-44.03629099 343.87344961 -44.03719471 347.82996976 -44.05125046 351.78662872 C-44.06401569 355.41325701 -44.06276908 359.03960833 -44.05065975 362.66623638 C-44.04778676 364.59024972 -44.05961865 366.51426797 -44.0720818 368.43824309 C-44.0029059 380.60866881 -41.52909239 389.2004517 -33.01611328 398.01318359 C-24.45929622 405.96438118 -14.1491374 406.4437102 -2.94621277 406.42424011 C-1.9835691 406.42650567 -1.02092542 406.42877123 -0.02911073 406.43110543 C3.1872295 406.43742091 6.40352732 406.43661765 9.61987305 406.43579102 C11.92977452 406.43878403 14.23967549 406.44218689 16.54957581 406.44596863 C22.81823053 406.45479818 29.08687159 406.4571463 35.35553193 406.45778441 C39.27353383 406.45849549 43.19153227 406.4606309 47.10953331 406.46328163 C60.07717863 406.47205427 73.04481426 406.47670178 86.01246241 406.47595116 C87.05998126 406.47589122 87.05998126 406.47589122 88.12866211 406.47583008 C89.17746732 406.47576876 89.17746732 406.47576876 90.24746051 406.4757062 C101.576095 406.47529984 112.90469623 406.484868 124.23332111 406.49896844 C135.8795017 406.51334919 147.52566456 406.52005476 159.1718542 406.51937467 C165.70466551 406.51911989 172.23743918 406.52196019 178.77024269 406.53255272 C184.91553891 406.54224504 191.06076157 406.54230504 197.20606041 406.53503609 C199.4578347 406.53399167 201.7096136 406.5363446 203.96138 406.54239655 C207.0426427 406.55013966 210.12365283 406.54545624 213.20491028 406.5377655 C214.08927082 406.54290907 214.97363137 406.54805263 215.88479072 406.55335206 C226.72417518 406.49384435 236.81477096 404.66948238 245.00732422 397.16552734 C251.20426753 390.58570653 254.43383068 382.57017043 254.4540453 373.57299805 C254.46073206 372.18544107 254.46073206 372.18544107 254.46755391 370.76985264 C254.46736955 369.7621831 254.46718519 368.75451357 254.46699524 367.71630859 C254.47251027 366.10044688 254.47251027 366.10044688 254.47813672 364.45194149 C254.48916582 360.83563196 254.49301612 357.21935117 254.49682617 353.60302734 C254.50309146 351.0125774 254.50973832 348.42212836 254.51673889 345.8316803 C254.53647657 338.05314112 254.54656657 330.27460068 254.55546668 322.49604273 C254.55985443 318.828731 254.56522002 315.1614207 254.57045555 311.49411011 C254.58746594 299.29550985 254.60195838 287.09691047 254.60920429 274.89830017 C254.61111404 271.73460896 254.6130344 268.57091775 254.61499023 265.40722656 C254.61547397 264.62095119 254.61595771 263.83467582 254.61645611 263.02457392 C254.62474996 250.2978052 254.65007679 237.57113066 254.68257091 224.84440303 C254.71569371 211.76428655 254.7336578 198.68421784 254.73684853 185.60405922 C254.73900892 178.26568382 254.7476881 170.92744573 254.77330971 163.58911133 C254.79737314 156.68128286 254.8008097 149.7737046 254.79054832 142.86584282 C254.79005367 140.33635067 254.79635311 137.80684625 254.81010437 135.27739143 C254.92662999 112.56458562 251.91378184 98.72946303 235.67946339 82.21736526 C233.89122401 80.41916451 232.09636971 78.62777295 230.30029297 76.83740234 C229.03351764 75.56605473 227.7671111 74.29433955 226.50105286 73.02227783 C223.85928709 70.37162859 221.21199419 67.7266578 218.56079102 65.08544922 C215.18343728 61.71959658 211.82222838 58.33812191 208.46523571 54.95197678 C205.85816233 52.32646139 203.24173567 49.71042284 200.62258339 47.09696198 C199.38010437 45.85463509 198.14067409 44.6092505 196.90453148 43.36061859 C184.79235792 31.14332579 173.40354051 22.78787336 155.67718697 22.16189289 C154.42916235 22.16021705 153.18113773 22.1585412 151.89529419 22.15681458 C151.19314344 22.15454902 150.4909927 22.15228346 149.76756465 22.14994925 C147.43877589 22.14367085 145.11004624 22.14443461 142.78125 22.14526367 C141.10173468 22.14226836 139.42222004 22.13886498 137.7427063 22.13508606 C133.19719531 22.12628056 128.65170317 22.12390943 124.10618448 22.12327027 C121.26241645 22.12255791 118.41865317 22.12042009 115.57488632 22.11777306 C105.6430201 22.10853167 95.71116726 22.10443673 85.77929688 22.10522461 C76.53847485 22.10582536 67.29771121 22.09527092 58.05690396 22.07948095 C50.10760478 22.06638443 42.15832465 22.06104159 34.20901477 22.06168002 C29.46808941 22.06193435 24.72721599 22.05911911 19.98630142 22.04850197 C15.52603585 22.03878517 11.06587151 22.03876627 6.60560226 22.0460186 C4.97466127 22.04705994 3.34371385 22.04472852 1.71278381 22.03865814 C-12.44094304 21.98941541 -25.77820859 22.29536081 -36.07470703 33.22802734 Z " fill="#000000" transform="translate(150.68017578125,41.70947265625)"/>
<path d="M0 0 C0.98963285 -0.00679667 0.98963285 -0.00679667 1.99925828 -0.01373065 C4.19067959 -0.0263022 6.38185005 -0.02475902 8.57330322 -0.02310181 C10.15253007 -0.02909166 11.731754 -0.03589825 13.31097412 -0.04345703 C17.58803705 -0.06107922 21.86501987 -0.06581085 26.14211559 -0.0670886 C28.81855024 -0.06851307 31.49496472 -0.0727883 34.17139435 -0.07808304 C43.52087185 -0.09657183 52.87029242 -0.10475522 62.2197876 -0.10317993 C70.91476449 -0.10197932 79.60949285 -0.12306888 88.30440688 -0.15466726 C95.78577387 -0.18087996 103.26705993 -0.19154512 110.74847245 -0.19026911 C115.20949695 -0.18976088 119.67030051 -0.19536657 124.13127899 -0.21662521 C128.33063319 -0.23609167 132.52955762 -0.23607514 136.72892761 -0.22159195 C138.26269921 -0.21951303 139.79649831 -0.22414962 141.33022308 -0.23631287 C153.18179483 -0.32415052 163.4785151 0.82485561 172.36334229 9.34555054 C179.53123429 17.36055705 181.38350687 25.38615379 181.37261963 35.88363647 C181.37933685 36.82283936 181.38605408 37.76204224 181.39297485 38.72970581 C181.41190053 41.82045857 181.41587648 44.91099351 181.41802979 48.00180054 C181.42446203 50.16262906 181.43119071 52.32345672 181.4382019 54.48428345 C181.45016151 59.00999977 181.45388413 63.53563984 181.45269775 68.06137085 C181.45249477 73.83905897 181.47978185 79.61625408 181.51424217 85.39382553 C181.53656402 89.85674247 181.54053365 94.31954182 181.5394783 98.78250885 C181.54182688 100.91140693 181.55060814 103.04030861 181.56614304 105.16915131 C181.73960251 131.39698753 181.73960251 131.39698753 172.00396729 141.54867554 C164.97913407 147.8310467 157.64830247 150.50777237 148.16418457 150.53485107 C147.50442934 150.53938219 146.84467411 150.5439133 146.16492629 150.54858172 C143.97350498 150.56115328 141.78233452 150.5596101 139.59088135 150.55795288 C138.0116545 150.56394273 136.43243057 150.57074933 134.85321045 150.57830811 C130.57614752 150.59593029 126.2991647 150.60066193 122.02206898 150.60193968 C119.34563433 150.60336415 116.66921985 150.60763937 113.99279022 150.61293411 C104.64331272 150.63142291 95.29389215 150.63960629 85.94439697 150.63803101 C77.24942008 150.63683039 68.55469172 150.65791995 59.85977769 150.68951833 C52.3784107 150.71573104 44.89712464 150.72639619 37.41571212 150.72512019 C32.95468762 150.72461196 28.49388406 150.73021764 24.03290558 150.75147629 C19.83355138 150.77094275 15.63462695 150.77092622 11.43525696 150.75644302 C9.90148536 150.7543641 8.36768626 150.7590007 6.83396149 150.77116394 C-5.0218848 150.85903327 -15.30466431 149.70494535 -24.19915771 141.19320679 C-31.11867341 133.44020398 -33.21874778 125.78037062 -33.20843506 115.5652771 C-33.21515228 114.60510681 -33.22186951 113.64493652 -33.22879028 112.65567017 C-33.24774641 109.48974391 -33.25169349 106.32402998 -33.25384521 103.15805054 C-33.26027548 100.94855666 -33.26700401 98.73906364 -33.27401733 96.52957153 C-33.28598464 91.89952624 -33.28969878 87.26955552 -33.28851318 82.63949585 C-33.28831019 76.72380183 -33.31559518 70.80858925 -33.3500576 64.89300919 C-33.37236197 60.32890655 -33.37634961 55.76491906 -33.37529373 51.20076752 C-33.37764501 49.02080377 -33.38644172 46.84083661 -33.40195847 44.66092682 C-33.42168683 41.60266524 -33.41575293 38.54543239 -33.40374756 35.4871521 C-33.42060608 34.15260986 -33.42060608 34.15260986 -33.43780518 32.79110718 C-33.34578398 23.5056938 -30.21158404 15.76073704 -23.83978271 9.02133179 C-16.88180187 2.67146716 -9.45654653 0.02699999 0 0 Z M-9.70515442 27.40904236 C-11.34413293 31.27201154 -11.3447678 34.87663971 -11.32196045 39.0015564 C-11.3288237 39.87047012 -11.33568695 40.73938385 -11.34275818 41.6346283 C-11.36102675 44.50067588 -11.35718857 47.36617609 -11.35150146 50.23226929 C-11.35606328 52.22857338 -11.36136885 54.22487591 -11.36738586 56.22117615 C-11.37631711 60.40324283 -11.37389368 64.58511856 -11.36395264 68.7671814 C-11.35246372 74.12172617 -11.37267335 79.47561141 -11.40186977 84.83006954 C-11.42023181 88.95224685 -11.41993928 93.07426612 -11.41423225 97.19647408 C-11.41407904 99.17040494 -11.42012375 101.14434652 -11.43252373 103.11823845 C-11.44743166 105.88054434 -11.43675817 108.64163191 -11.4196167 111.40390015 C-11.42928467 112.21603973 -11.43895264 113.02817932 -11.44891357 113.8649292 C-11.38107052 119.09620865 -10.45657832 122.16670887 -6.91790771 126.26742554 C-3.52140691 128.4931586 -0.6374775 128.52290533 3.36917114 128.53485107 C4.66177856 128.54338104 5.95438599 128.55191101 7.28616333 128.56069946 C8.71667493 128.56000045 10.14718643 128.5590774 11.57769775 128.55795288 C13.08577813 128.56393792 14.59385543 128.57074341 16.10192871 128.57830811 C20.19702181 128.59597778 24.29203133 128.60066389 28.38715887 128.60193968 C30.94611448 128.60336128 33.50504884 128.60763104 36.06399918 128.61293411 C44.99273274 128.63143752 53.92140659 128.63960433 62.85015869 128.63803101 C71.17084047 128.63682948 79.49126289 128.65793305 87.81187904 128.68951833 C94.95765429 128.71567649 102.1033448 128.7263985 109.24916756 128.72512019 C113.51613807 128.72461042 117.78287809 128.73030162 122.04980087 128.75147629 C126.06361124 128.77085107 130.0769711 128.77098862 134.09079742 128.75644302 C135.56216465 128.75435286 137.03356001 128.75906826 138.504879 128.77116394 C140.51687764 128.78663049 142.52903006 128.77490305 144.54104614 128.76190186 C145.66596907 128.76299139 146.79089199 128.76408092 147.94990349 128.76520348 C152.34724488 128.06636325 155.6592547 126.05951943 158.43992615 122.5572052 C159.45183981 118.94901225 159.36798933 115.34785545 159.35675049 111.63095093 C159.36186142 110.76057693 159.36697235 109.89020294 159.37223816 108.99345398 C159.3861345 106.11725991 159.38517738 103.24130544 159.38287354 100.36508179 C159.38676038 98.36495372 159.39109503 96.36482648 159.39585876 94.36470032 C159.40332102 90.17249882 159.4030296 85.98038154 159.39776611 81.78817749 C159.39197088 76.41680518 159.40890384 71.04577762 159.43211079 65.67446232 C159.44684459 61.54376715 159.44772031 57.41315507 159.44460106 53.28243828 C159.44511443 51.30210118 159.45035508 49.32175945 159.46041298 47.34144783 C159.4727534 44.57183571 159.46600011 41.80289608 159.45440674 39.03329468 C159.46205048 38.21598877 159.46969421 37.39868286 159.47756958 36.55661011 C159.43534409 31.99131643 159.12784151 28.90965422 156.08209229 25.26742554 C152.18653073 22.43084445 149.45015458 21.89128451 144.66802979 21.88647461 C143.37260254 21.87801514 142.07717529 21.86955566 140.74249268 21.86083984 C139.31402462 21.86667228 137.8855578 21.87281676 136.45709229 21.87924194 C134.94724142 21.87517522 133.43739353 21.86983278 131.92755127 21.86331177 C127.83252657 21.84964421 123.73772882 21.85493445 119.6427002 21.86444902 C115.35556429 21.87204853 111.06844771 21.8649992 106.78131104 21.86029053 C99.58205683 21.85483383 92.38289497 21.86202234 85.18365479 21.87631226 C76.86239725 21.89263863 68.54136023 21.88735006 60.22010803 21.87083304 C53.07347222 21.85721573 45.92690277 21.8552997 38.78025818 21.86314905 C34.51283148 21.86782422 30.24550841 21.8684547 25.97808838 21.85853958 C21.96594936 21.84986862 17.95409444 21.85589405 13.94198608 21.87322235 C12.47020947 21.87718652 10.99840891 21.87605431 9.52664185 21.86943436 C7.51648822 21.8612269 5.5062823 21.87334796 3.49615479 21.88647461 C2.37160889 21.88760569 1.24706299 21.88873676 0.08843994 21.88990211 C-4.27322321 22.43761987 -6.90908496 24.05857632 -9.70515442 27.40904236 Z " fill="#000000" transform="translate(181.91790771484375,276.7325744628906)"/>
<path d="M0 0 C0.9715654 -0.0071553 1.9431308 -0.01431061 2.94413757 -0.02168274 C4.01377747 -0.02437164 5.08341736 -0.02706055 6.18547058 -0.02983093 C7.87098274 -0.03968773 7.87098274 -0.03968773 9.59054565 -0.04974365 C13.3216508 -0.06950933 17.05271566 -0.08114596 20.78385925 -0.09111023 C22.05556158 -0.09518576 23.32726391 -0.09926128 24.63750267 -0.10346031 C30.67258555 -0.12218 36.70764391 -0.13674323 42.74274808 -0.14507228 C49.70841379 -0.15484437 56.6737617 -0.18116255 63.63931543 -0.22157317 C69.67279645 -0.25537466 75.7061232 -0.26721749 81.73970604 -0.27127647 C84.30618636 -0.27615686 86.87266293 -0.28781179 89.43908119 -0.30631447 C93.02798076 -0.33058226 96.61604586 -0.32976312 100.20500183 -0.32279968 C101.26856903 -0.33560974 102.33213623 -0.3484198 103.42793274 -0.36161804 C110.63545684 -0.31055023 110.63545684 -0.31055023 114.52584839 2.05154419 C117.83881736 5.77723381 117.77981457 8.81633073 117.74479675 13.66279602 C117.389328 16.14717102 117.389328 16.14717102 115.076828 19.20967102 C111.54753337 21.75404622 109.04678533 22.2721816 104.81025696 22.28761292 C103.87097351 22.29332306 102.93169006 22.2990332 101.96394348 22.30491638 C100.93530182 22.30603424 99.90666016 22.3071521 98.84684753 22.30830383 C97.21963776 22.31575119 97.21963776 22.31575119 95.55955505 22.323349 C91.9637438 22.33797811 88.36797665 22.34477355 84.7721405 22.35029602 C82.27733865 22.35604641 79.78253681 22.36180416 77.28773499 22.36756897 C72.72305374 22.37673676 68.15838517 22.38303651 63.59369576 22.38606572 C57.5468256 22.39010082 51.50011061 22.40238723 45.45329285 22.42842102 C38.96593085 22.45592296 32.47870211 22.4688119 25.99128342 22.47074127 C23.51691962 22.47377157 21.04255676 22.48181271 18.56822586 22.49492645 C15.10885886 22.51195344 11.64998926 22.51011474 8.19059753 22.50361633 C7.16600433 22.51283112 6.14141113 22.5220459 5.08576965 22.53153992 C0.02791555 22.50173012 -3.50911799 22.46008646 -7.610672 19.14717102 C-8.19977356 18.6908429 -8.78887512 18.23451477 -9.39582825 17.76435852 C-11.52458768 14.93057587 -11.06872887 12.01330037 -10.97395325 8.59638977 C-10.46910214 5.19271619 -9.12385692 3.43860433 -6.610672 1.14717102 C-4.20403241 -0.05614878 -2.68851479 0.01356334 0 0 Z " fill="#000000" transform="translate(202.6106719970703,319.8528289794922)"/>
<path d="M0 0 C0.67355026 -0.0065712 1.34710052 -0.0131424 2.0410614 -0.01991272 C4.26850501 -0.03961144 6.49588131 -0.05130054 8.72338867 -0.0612793 C9.48542791 -0.06535482 10.24746716 -0.06943035 11.0325985 -0.07362938 C15.06600039 -0.09447544 19.09936841 -0.1087835 23.1328125 -0.11816406 C27.29241837 -0.12922603 31.45148893 -0.1636271 35.61090565 -0.20333576 C38.81517004 -0.22951649 42.01930712 -0.23785715 45.22366905 -0.24144554 C46.75663557 -0.24630771 48.28959654 -0.25791127 49.82245827 -0.27648354 C51.97191087 -0.3009079 54.11998154 -0.29990499 56.26953125 -0.29296875 C57.49070145 -0.29883499 58.71187164 -0.30470123 59.970047 -0.31074524 C63.99915189 0.27433827 66.16119395 1.66929197 69.32885742 4.17700195 C71.33428708 7.0459594 71.59526007 9.16401414 71.26635742 12.61450195 C71.21350586 13.35571289 71.1606543 14.09692383 71.10620117 14.8605957 C69.9478418 18.3123902 68.12402038 19.87405944 65.32885742 22.17700195 C61.9519043 22.80519104 61.9519043 22.80519104 58.04760742 22.80810547 C56.97591309 22.81883842 56.97591309 22.81883842 55.88256836 22.82978821 C53.53067259 22.84663976 51.18069278 22.82729631 48.82885742 22.8059082 C47.18888186 22.80673724 45.54890639 22.80919795 43.90893555 22.81321716 C40.4757377 22.81607271 37.04319313 22.80139859 33.61010742 22.77392578 C29.2149207 22.73984274 24.82090181 22.74586313 20.42565918 22.76458836 C17.04034739 22.77516969 13.65530618 22.76621037 10.27001953 22.75120354 C8.64974776 22.74602954 7.02944765 22.74649403 5.40917969 22.75274849 C3.14220679 22.75821472 0.8768913 22.73778393 -1.38989258 22.71044922 C-2.67831055 22.70425064 -3.96672852 22.69805206 -5.29418945 22.69166565 C-9.22601901 22.09243615 -10.87650883 20.95073342 -13.67114258 18.17700195 C-15.52969539 14.45989632 -15.25022697 10.22422914 -14.67114258 6.17700195 C-10.41542595 0.5410529 -6.75926207 0.05459508 0 0 Z " fill="#000000" transform="translate(206.671142578125,361.822998046875)"/>
</svg>
